<mxfile host="65bd71144e">
    <diagram id="tu7sbO8wtvebzG5wz3I7" name="Page-1">
        <mxGraphModel dx="814" dy="654" grid="1" gridSize="10" guides="1" tooltips="1" connect="1" arrows="1" fold="1" page="1" pageScale="1" pageWidth="700" pageHeight="1400" math="0" shadow="0">
            <root>
                <mxCell id="0"/>
                <mxCell id="1" parent="0"/>
                <mxCell id="7" value="flows" style="swimlane;whiteSpace=wrap;html=1;" vertex="1" parent="1">
                    <mxGeometry x="90" y="140" width="100" height="210" as="geometry"/>
                </mxCell>
                <mxCell id="9" value="from" style="rounded=0;whiteSpace=wrap;html=1;" vertex="1" parent="7">
                    <mxGeometry x="10" y="40" width="60" height="30" as="geometry"/>
                </mxCell>
                <mxCell id="10" value="to" style="rounded=0;whiteSpace=wrap;html=1;" vertex="1" parent="7">
                    <mxGeometry x="10" y="80" width="60" height="30" as="geometry"/>
                </mxCell>
                <mxCell id="11" value="flows" style="rounded=0;whiteSpace=wrap;html=1;" vertex="1" parent="7">
                    <mxGeometry x="10" y="120" width="60" height="30" as="geometry"/>
                </mxCell>
                <mxCell id="12" value="type" style="rounded=0;whiteSpace=wrap;html=1;" vertex="1" parent="7">
                    <mxGeometry x="10" y="160" width="60" height="30" as="geometry"/>
                </mxCell>
                <mxCell id="15" style="edgeStyle=none;html=1;exitX=0;exitY=0.25;exitDx=0;exitDy=0;entryX=1;entryY=0.5;entryDx=0;entryDy=0;endArrow=none;endFill=0;" edge="1" parent="1" source="14" target="9">
                    <mxGeometry relative="1" as="geometry"/>
                </mxCell>
                <mxCell id="16" style="edgeStyle=none;html=1;exitX=0;exitY=0.75;exitDx=0;exitDy=0;entryX=1;entryY=0.5;entryDx=0;entryDy=0;endArrow=none;endFill=0;" edge="1" parent="1" source="14" target="10">
                    <mxGeometry relative="1" as="geometry"/>
                </mxCell>
                <mxCell id="18" style="edgeStyle=none;html=1;exitX=0;exitY=0.5;exitDx=0;exitDy=0;entryX=1;entryY=0.5;entryDx=0;entryDy=0;endArrow=none;endFill=0;" edge="1" parent="1" source="17" target="11">
                    <mxGeometry relative="1" as="geometry"/>
                </mxCell>
                <mxCell id="22" value="settings" style="swimlane;whiteSpace=wrap;html=1;" vertex="1" parent="1">
                    <mxGeometry x="530" y="60" width="150" height="250" as="geometry"/>
                </mxCell>
                <mxCell id="34" value="state names" style="rounded=0;whiteSpace=wrap;html=1;" vertex="1" parent="22">
                    <mxGeometry x="15" y="150" width="115" height="30" as="geometry"/>
                </mxCell>
                <mxCell id="35" value="flow names" style="rounded=0;whiteSpace=wrap;html=1;" vertex="1" parent="22">
                    <mxGeometry x="15" y="200" width="115" height="30" as="geometry"/>
                </mxCell>
                <mxCell id="40" value="state-dependent flow names" style="rounded=0;whiteSpace=wrap;html=1;" vertex="1" parent="22">
                    <mxGeometry x="15" y="50" width="115" height="30" as="geometry"/>
                </mxCell>
                <mxCell id="41" value="state-dependence state names" style="rounded=0;whiteSpace=wrap;html=1;" vertex="1" parent="22">
                    <mxGeometry x="15" y="100" width="115" height="30" as="geometry"/>
                </mxCell>
                <mxCell id="30" value="derivations" style="swimlane;whiteSpace=wrap;html=1;" vertex="1" parent="1">
                    <mxGeometry x="350" y="370" width="200" height="200" as="geometry"/>
                </mxCell>
                <mxCell id="32" value="variables" style="swimlane;whiteSpace=wrap;html=1;" vertex="1" parent="1">
                    <mxGeometry x="270" y="40" width="160" height="300" as="geometry"/>
                </mxCell>
                <mxCell id="23" value="susceptibility" style="rounded=0;whiteSpace=wrap;html=1;" vertex="1" parent="32">
                    <mxGeometry x="20" y="30" width="120" height="30" as="geometry"/>
                </mxCell>
                <mxCell id="24" value="contact" style="rounded=0;whiteSpace=wrap;html=1;" vertex="1" parent="32">
                    <mxGeometry x="20" y="80" width="120" height="30" as="geometry"/>
                </mxCell>
                <mxCell id="25" value="infectivity" style="rounded=0;whiteSpace=wrap;html=1;" vertex="1" parent="32">
                    <mxGeometry x="20" y="130" width="120" height="30" as="geometry"/>
                </mxCell>
                <mxCell id="14" value="state" style="rounded=0;whiteSpace=wrap;html=1;" vertex="1" parent="32">
                    <mxGeometry x="20" y="180" width="120" height="30" as="geometry"/>
                </mxCell>
                <mxCell id="17" value="flow" style="rounded=0;whiteSpace=wrap;html=1;" vertex="1" parent="32">
                    <mxGeometry x="20" y="240" width="120" height="30" as="geometry"/>
                </mxCell>
                <mxCell id="37" value="T" style="rounded=0;whiteSpace=wrap;html=1;" vertex="1" parent="1">
                    <mxGeometry x="290" y="730" width="180" height="190" as="geometry"/>
                </mxCell>
                <mxCell id="38" value="state dependent flows" style="text;html=1;strokeColor=none;fillColor=none;align=center;verticalAlign=middle;whiteSpace=wrap;rounded=0;rotation=270;" vertex="1" parent="1">
                    <mxGeometry x="190" y="800" width="160" height="30" as="geometry"/>
                </mxCell>
                <mxCell id="39" value="state-dependence states" style="text;html=1;strokeColor=none;fillColor=none;align=center;verticalAlign=middle;whiteSpace=wrap;rounded=0;" vertex="1" parent="1">
                    <mxGeometry x="302.5" y="700" width="155" height="30" as="geometry"/>
                </mxCell>
            </root>
        </mxGraphModel>
    </diagram>
</mxfile>